Coordinates
version=1
nRows=14
nColumns=40
inDegrees=yes

Units are S.I. units (second, meters, Newtons, ...)
Angles are in degrees.

endheader
time	pelvis_tilt	pelvis_list	pelvis_rotation	pelvis_tx	pelvis_ty	pelvis_tz	hip_flexion_r	hip_adduction_r	hip_rotation_r	knee_angle_r	knee_angle_r_beta	ankle_angle_r	subtalar_angle_r	mtp_angle_r	hip_flexion_l	hip_adduction_l	hip_rotation_l	knee_angle_l	knee_angle_l_beta	ankle_angle_l	subtalar_angle_l	mtp_angle_l	lumbar_extension	lumbar_bending	lumbar_rotation	arm_flex_r	arm_add_r	arm_rot_r	elbow_flex_r	pro_sup_r	wrist_flex_r	wrist_dev_r	arm_flex_l	arm_add_l	arm_rot_l	elbow_flex_l	pro_sup_l	wrist_flex_l	wrist_dev_l
     36.11000000	     -6.38324807	     -7.12224579	     -2.04762283	      1.09144416	      0.93359038	      0.41418881	     36.57760312	     -4.96459921	     -6.96785717	     56.34825355	     56.34825355	      7.03386628	    -17.11230892	      5.27617724	     16.90325162	     -7.43693523	     -7.91724347	     21.89304858	     21.89304858	     13.89459753	     -7.80498555	     -1.17953034	    -12.51747209	      5.48991953	      1.23209574	      2.13661931	    -14.16526274	     -1.03106302	     38.11817072	     45.54345174	      0.00000000	      0.00000000	     13.66605851	    -14.51746662	     -0.19996192	     41.25611688	     45.75468448	      0.00000000	      0.00000000
     36.12192857	     -6.41921443	     -7.17157808	     -2.35925630	      1.08949402	      0.93338301	      0.41433294	     37.30017176	     -4.75387271	     -6.95363918	     54.23782543	     54.23782543	      6.85462174	    -16.72260559	      5.08741380	     16.47898383	     -7.49693205	     -7.97166671	     21.88099079	     21.88099079	     14.15363741	     -8.12237195	     -1.20831204	    -12.70829346	      5.55928043	      1.77801373	      0.78479009	    -14.56946332	     -1.11484170	     36.54209392	     45.60556761	      0.00000000	      0.00000000	     14.97292040	    -14.68886826	     -0.38279196	     42.70180455	     45.81176422	      0.00000000	      0.00000000
     36.13385714	     -6.47139079	     -7.09663192	     -2.65466064	      1.08753870	      0.93309102	      0.41441711	     37.85982851	     -4.68246352	     -6.98773267	     51.80148914	     51.80148914	      5.81253315	    -16.52821637	      2.63967997	     16.05757154	     -7.37303793	     -7.92091888	     21.80528757	     21.80528757	     14.31483498	     -8.68909984	     -1.17868470	    -12.84172049	      5.46793627	      1.44575262	      1.14409836	    -14.17540734	     -2.67977738	     31.80747714	     45.91526298	      0.00000000	      0.00000000	     15.12700648	    -15.63394684	     -0.33641726	     45.86056544	     45.90751193	      0.00000000	      0.00000000
     36.14578571	     -6.53515530	     -7.09359380	     -2.94618029	      1.08564098	      0.93276399	      0.41459531	     38.30404638	     -4.48262187	     -7.06260094	     49.24109709	     49.24109709	      5.12871071	    -16.06793502	      1.54759172	     15.66089433	     -7.36522408	     -7.97672874	     21.76873249	     21.76873249	     14.56423123	     -9.02207415	     -1.19799051	    -12.97978747	      5.47487918	      1.60757829	      0.66777837	    -14.19327819	     -4.11250291	     28.93655365	     46.14504071	      0.00000000	      0.00000000	     15.89241618	    -16.06650134	     -0.69855075	     48.02154766	     46.05369234	      0.00000000	      0.00000000
     36.15771429	     -6.61947008	     -7.14515587	     -3.20918894	      1.08375480	      0.93241798	      0.41486090	     38.66962641	     -4.22021252	     -7.25715918	     46.63265296	     46.63265296	      4.82260628	    -15.22241717	      1.80379725	     15.29336479	     -7.42705859	     -8.03729843	     21.72518021	     21.72518021	     14.82325496	     -9.24444575	     -1.23392645	    -13.09644942	      5.56416195	      1.93066281	     -0.49663676	    -14.53089819	     -4.24509899	     27.91585610	     46.19088238	      0.00000000	      0.00000000	     17.05580210	    -16.27661857	     -0.93245354	     49.19307983	     46.10789883	      0.00000000	      0.00000000
     36.16964286	     -6.71174134	     -7.13585884	     -3.47800608	      1.08189322	      0.93202729	      0.41523282	     38.95141198	     -3.99422252	     -7.49203903	     43.95852089	     43.95852089	      4.44965339	    -14.15909359	      1.95511667	     14.93071664	     -7.43216527	     -8.14129007	     21.67236894	     21.67236894	     15.07442619	     -9.45506031	     -1.26046095	    -13.20927392	      5.55326808	      2.37181989	     -1.56555898	    -14.80991586	     -4.44734095	     26.66793480	     46.25481129	      0.00000000	      0.00000000	     18.13738182	    -16.44494162	     -1.15863518	     50.78755526	     46.16565201	      0.00000000	      0.00000000
     36.18157143	     -6.81889832	     -7.10604749	     -3.73220416	      1.08011692	      0.93160532	      0.41570496	     39.13829171	     -3.77560749	     -7.81336205	     41.21978789	     41.21978789	      4.04483571	    -12.85085136	      2.02150606	     14.56119362	     -7.42400724	     -8.27233717	     21.57892347	     21.57892347	     15.33781767	     -9.58349583	     -1.29990625	    -13.29083683	      5.51337552	      2.70493141	     -2.45915199	    -15.00975781	     -4.73796304	     25.43096714	     46.32941579	      0.00000000	      0.00000000	     18.99813785	    -16.67735108	     -1.39418501	     52.68093844	     46.22677256	      0.00000000	      0.00000000
     36.19350000	     -6.96538078	     -6.99802835	     -4.01209005	      1.07840653	      0.93109078	      0.41640492	     39.29557358	     -3.60507325	     -8.20542855	     38.48322796	     38.48322796	      3.53796270	    -11.26869173	      1.83926125	     14.19457022	     -7.35809965	     -8.52033126	     21.42710832	     21.42710832	     15.59546103	     -9.59786272	     -1.34810276	    -13.37290202	      5.31994004	      2.88636451	     -3.07851197	    -15.02144889	     -5.33211040	     24.07931036	     46.44338140	      0.00000000	      0.00000000	     19.42804963	    -17.09676011	     -1.75998566	     55.53642003	     46.31655674	      0.00000000	      0.00000000
     36.20542857	     -7.11100698	     -6.90197945	     -4.22167030	      1.07686699	      0.93063416	      0.41712058	     39.31358585	     -3.41629230	     -8.68168452	     35.68921771	     35.68921771	      3.01802727	     -9.55901072	      1.81281684	     13.79924770	     -7.30309699	     -8.77359066	     21.21655380	     21.21655380	     15.85388020	     -9.50736028	     -1.43755688	    -13.38180170	      5.18601545	      2.81268958	     -3.64118780	    -15.06092749	     -5.97089106	     23.26302051	     46.54054158	      0.00000000	      0.00000000	     19.63826683	    -17.55248262	     -2.27783868	     58.20231314	     46.41830487	      0.00000000	      0.00000000
     36.21735714	     -7.24787821	     -6.88048207	     -4.39263220	      1.07554733	      0.93026074	      0.41799877	     39.15552958	     -3.09450384	     -9.17658642	     32.83297235	     32.83297235	      2.53810713	     -7.91239882	      2.19816531	     13.33833441	     -7.31676814	     -8.93382559	     20.92771487	     20.92771487	     16.09624124	     -9.40759598	     -1.51762343	    -13.30745599	      5.14804859	      2.83465738	     -4.39851544	    -15.21822112	     -6.23331771	     22.89657745	     46.57670644	      0.00000000	      0.00000000	     20.16067417	    -17.80556817	     -2.64406278	     59.79401826	     46.48341755	      0.00000000	      0.00000000
     36.22928571	     -7.37967983	     -6.69117465	     -4.57481585	      1.07444903	      0.92972138	      0.41895697	     38.99943128	     -2.96623336	     -9.73929020	     30.24103393	     30.24103393	      2.21482450	     -5.86250735	      2.48553647	     12.82763249	     -7.17471627	     -9.28998680	     20.57891891	     20.57891891	     16.32450398	     -9.10942829	     -1.79033128	    -13.32600323	      4.87024043	      2.50197022	     -5.03659195	    -15.16916385	     -7.22923417	     23.23051182	     46.65408379	      0.00000000	      0.00000000	     19.53591825	    -18.35113786	     -3.81018463	     64.06780926	     46.67288008	      0.00000000	      0.00000000
     36.24121429	     -7.47922433	     -6.57981158	     -4.70388693	      1.07357092	      0.92934857	      0.42005952	     38.62587451	     -2.67926235	    -10.21810352	     27.60824954	     27.60824954	      1.82784060	     -4.23952252	      3.08211490	     12.21824578	     -7.08666215	     -9.51427744	     20.12190693	     20.12190693	     16.54208818	     -8.89875981	     -1.87253261	    -13.23358532	      4.70942326	      2.64578186	     -5.82442670	    -15.21467382	     -7.34219776	     23.07808269	     46.66389067	      0.00000000	      0.00000000	     20.14725067	    -18.39060157	     -4.14631156	     65.37972420	     46.72973955	      0.00000000	      0.00000000
     36.25314286	     -7.47174295	     -6.31852039	     -4.80884310	      1.07308247	      0.92892592	      0.42113113	     38.20604518	     -2.66210801	    -10.93591280	     25.47408954	     25.47408954	      1.85669419	     -2.05162255	      4.03856455	     11.42172510	     -6.84029400	     -9.91016927	     19.56777157	     19.56777157	     16.71970954	     -8.43643219	     -2.25026293	    -13.30337183	      4.33735824	      2.65392260	     -6.90786168	    -15.23036389	     -7.80616429	     23.99022442	     46.65090522	      0.00000000	      0.00000000	     19.95161689	    -18.48710815	     -5.05820298	     68.84690214	     46.87970015	      0.00000000	      0.00000000
     36.26507143	     -7.47556288	     -6.15012398	     -4.86614304	      1.07281225	      0.92854164	      0.42240065	     37.59483995	     -2.41945607	    -11.39868881	     23.29750825	     23.29750825	      1.63384922	     -0.79554116	      4.86345262	     10.60610918	     -6.66863666	    -10.14463466	     18.97121117	     18.97121117	     16.92119942	     -8.12021190	     -2.39464034	    -13.21141356	      4.10389037	      2.69986009	     -7.70108791	    -15.21382609	     -7.90783738	     24.23667425	     46.63862728	      0.00000000	      0.00000000	     20.28199519	    -18.49988826	     -5.43829343	     70.43432406	     46.94495595	      0.00000000	      0.00000000
